REM MD5 d176122ca370339d0a838e9790c2d2d7
FILE "Medarot R - Parts Collection (Japan).bin" BINARY
  TRACK 01 MODE2/2352
    INDEX 01 00:00:00
  TRACK 02 AUDIO
    INDEX 00 04:09:24
    INDEX 01 04:11:24
  TRACK 03 AUDIO
    INDEX 00 04:42:50
    INDEX 01 04:44:50
  TRACK 04 AUDIO
    INDEX 00 09:09:51
    INDEX 01 09:11:51
REM LEADOUT 12:31:51
